<svg width="235" height="235" viewBox="0 0 235 235" fill="none" xmlns="http://www.w3.org/2000/svg">
<circle cx="5" cy="5" r="5" fill="#EF6C3F"/>
<circle cx="30" cy="5" r="5" fill="#EF6C3F"/>
<circle cx="55" cy="5" r="5" fill="#EF6C3F"/>
<circle cx="80" cy="5" r="5" fill="#EF6C3F"/>
<circle cx="105" cy="5" r="5" fill="#EF6C3F"/>
<circle cx="130" cy="5" r="5" fill="#EF6C3F"/>
<circle cx="155" cy="5" r="5" fill="#EF6C3F"/>
<circle cx="180" cy="5" r="5" fill="#EF6C3F"/>
<circle cx="205" cy="5" r="5" fill="#EF6C3F"/>
<circle cx="230" cy="5" r="5" fill="#EF6C3F"/>
<circle cx="5" cy="30" r="5" fill="#EF6C3F"/>
<circle cx="30" cy="30" r="5" fill="#EF6C3F"/>
<circle cx="55" cy="30" r="5" fill="#EF6C3F"/>
<circle cx="80" cy="30" r="5" fill="#EF6C3F"/>
<circle cx="105" cy="30" r="5" fill="#EF6C3F"/>
<circle cx="130" cy="30" r="5" fill="#EF6C3F"/>
<circle cx="155" cy="30" r="5" fill="#EF6C3F"/>
<circle cx="180" cy="30" r="5" fill="#EF6C3F"/>
<circle cx="205" cy="30" r="5" fill="#EF6C3F"/>
<circle cx="230" cy="30" r="5" fill="#EF6C3F"/>
<circle cx="5" cy="55" r="5" fill="#EF6C3F"/>
<circle cx="30" cy="55" r="5" fill="#EF6C3F"/>
<circle cx="55" cy="55" r="5" fill="#EF6C3F"/>
<circle cx="80" cy="55" r="5" fill="#EF6C3F"/>
<circle cx="105" cy="55" r="5" fill="#EF6C3F"/>
<circle cx="130" cy="55" r="5" fill="#EF6C3F"/>
<circle cx="155" cy="55" r="5" fill="#EF6C3F"/>
<circle cx="180" cy="55" r="5" fill="#EF6C3F"/>
<circle cx="205" cy="55" r="5" fill="#EF6C3F"/>
<circle cx="230" cy="55" r="5" fill="#EF6C3F"/>
<circle cx="5" cy="80" r="5" fill="#EF6C3F"/>
<circle cx="30" cy="80" r="5" fill="#EF6C3F"/>
<circle cx="55" cy="80" r="5" fill="#EF6C3F"/>
<circle cx="80" cy="80" r="5" fill="#EF6C3F"/>
<circle cx="105" cy="80" r="5" fill="#EF6C3F"/>
<circle cx="130" cy="80" r="5" fill="#EF6C3F"/>
<circle cx="155" cy="80" r="5" fill="#EF6C3F"/>
<circle cx="180" cy="80" r="5" fill="#EF6C3F"/>
<circle cx="205" cy="80" r="5" fill="#EF6C3F"/>
<circle cx="230" cy="80" r="5" fill="#EF6C3F"/>
<circle cx="5" cy="105" r="5" fill="#EF6C3F"/>
<circle cx="30" cy="105" r="5" fill="#EF6C3F"/>
<circle cx="55" cy="105" r="5" fill="#EF6C3F"/>
<circle cx="80" cy="105" r="5" fill="#EF6C3F"/>
<circle cx="105" cy="105" r="5" fill="#EF6C3F"/>
<circle cx="130" cy="105" r="5" fill="#EF6C3F"/>
<circle cx="155" cy="105" r="5" fill="#EF6C3F"/>
<circle cx="180" cy="105" r="5" fill="#EF6C3F"/>
<circle cx="205" cy="105" r="5" fill="#EF6C3F"/>
<circle cx="230" cy="105" r="5" fill="#EF6C3F"/>
<circle cx="5" cy="130" r="5" fill="#EF6C3F"/>
<circle cx="30" cy="130" r="5" fill="#EF6C3F"/>
<circle cx="55" cy="130" r="5" fill="#EF6C3F"/>
<circle cx="80" cy="130" r="5" fill="#EF6C3F"/>
<circle cx="105" cy="130" r="5" fill="#EF6C3F"/>
<circle cx="130" cy="130" r="5" fill="#EF6C3F"/>
<circle cx="155" cy="130" r="5" fill="#EF6C3F"/>
<circle cx="180" cy="130" r="5" fill="#EF6C3F"/>
<circle cx="205" cy="130" r="5" fill="#EF6C3F"/>
<circle cx="230" cy="130" r="5" fill="#EF6C3F"/>
<circle cx="5" cy="155" r="5" fill="#EF6C3F"/>
<circle cx="30" cy="155" r="5" fill="#EF6C3F"/>
<circle cx="55" cy="155" r="5" fill="#EF6C3F"/>
<circle cx="80" cy="155" r="5" fill="#EF6C3F"/>
<circle cx="105" cy="155" r="5" fill="#EF6C3F"/>
<circle cx="130" cy="155" r="5" fill="#EF6C3F"/>
<circle cx="155" cy="155" r="5" fill="#EF6C3F"/>
<circle cx="180" cy="155" r="5" fill="#EF6C3F"/>
<circle cx="205" cy="155" r="5" fill="#EF6C3F"/>
<circle cx="230" cy="155" r="5" fill="#EF6C3F"/>
<circle cx="5" cy="180" r="5" fill="#EF6C3F"/>
<circle cx="30" cy="180" r="5" fill="#EF6C3F"/>
<circle cx="55" cy="180" r="5" fill="#EF6C3F"/>
<circle cx="80" cy="180" r="5" fill="#EF6C3F"/>
<circle cx="105" cy="180" r="5" fill="#EF6C3F"/>
<circle cx="130" cy="180" r="5" fill="#EF6C3F"/>
<circle cx="155" cy="180" r="5" fill="#EF6C3F"/>
<circle cx="180" cy="180" r="5" fill="#EF6C3F"/>
<circle cx="205" cy="180" r="5" fill="#EF6C3F"/>
<circle cx="230" cy="180" r="5" fill="#EF6C3F"/>
<circle cx="5" cy="205" r="5" fill="#EF6C3F"/>
<circle cx="30" cy="205" r="5" fill="#EF6C3F"/>
<circle cx="55" cy="205" r="5" fill="#EF6C3F"/>
<circle cx="80" cy="205" r="5" fill="#EF6C3F"/>
<circle cx="105" cy="205" r="5" fill="#EF6C3F"/>
<circle cx="130" cy="205" r="5" fill="#EF6C3F"/>
<circle cx="155" cy="205" r="5" fill="#EF6C3F"/>
<circle cx="180" cy="205" r="5" fill="#EF6C3F"/>
<circle cx="205" cy="205" r="5" fill="#EF6C3F"/>
<circle cx="230" cy="205" r="5" fill="#EF6C3F"/>
<circle cx="5" cy="230" r="5" fill="#EF6C3F"/>
<circle cx="30" cy="230" r="5" fill="#EF6C3F"/>
<circle cx="55" cy="230" r="5" fill="#EF6C3F"/>
<circle cx="80" cy="230" r="5" fill="#EF6C3F"/>
<circle cx="105" cy="230" r="5" fill="#EF6C3F"/>
<circle cx="130" cy="230" r="5" fill="#EF6C3F"/>
<circle cx="155" cy="230" r="5" fill="#EF6C3F"/>
<circle cx="180" cy="230" r="5" fill="#EF6C3F"/>
<circle cx="205" cy="230" r="5" fill="#EF6C3F"/>
<circle cx="230" cy="230" r="5" fill="#EF6C3F"/>
</svg>
