<svg width="54" height="56" viewBox="0 0 54 56" fill="none" xmlns="http://www.w3.org/2000/svg">
<g clip-path="url(#clip0_1041_10744)">
<path d="M46.0914 47.0634L30.9699 37.2956C32.6909 36.5587 34.1839 35.3588 35.2899 33.8239C36.3958 32.2891 37.0732 30.4766 37.25 28.5796C37.4268 26.6826 37.0963 24.7722 36.2938 23.0518C35.4912 21.3315 34.2467 19.8657 32.6927 18.8105C31.1387 17.7554 29.3335 17.1505 27.4694 17.0602C25.6053 16.9699 23.7521 17.3977 22.1073 18.2979C20.4625 19.1981 19.0877 20.537 18.1292 22.1721C17.1708 23.8071 16.6647 25.6771 16.6649 27.5826V55.9977L7.91297 47.0612C-2.54909 36.3785 -2.6276 19.1118 7.66774 8.32581L7.79035 8.19951L7.91297 8.07321L8.03666 7.94801L8.16143 7.82171C18.6052 -2.57436 35.2518 -2.6117 45.7375 7.71189C45.858 7.8305 45.9777 7.95057 46.0967 8.07211C46.2158 8.19365 46.3334 8.31593 46.4495 8.43893C56.6351 19.2348 56.5168 36.4181 46.0914 47.0634Z" fill="white"/>
<path d="M27.0287 32.0229C29.2046 32.0229 30.9685 30.2217 30.9685 28C30.9685 25.7782 29.2046 23.9771 27.0287 23.9771C24.8528 23.9771 23.0889 25.7782 23.0889 28C23.0889 30.2217 24.8528 32.0229 27.0287 32.0229Z" fill="white"/>
</g>
<defs>
<clipPath id="clip0_1041_10744">
<rect width="54" height="56" fill="white"/>
</clipPath>
</defs>
</svg>
